# xmcd
#
# Track frame offsets:
#	150
#	18498
#	37166
#	49742
#	67281
#	79751
#	92498
#	107961
#	126913
#	139269
#	156379
#	170079
#	185539
#	201370
#	216827
#	229040
#	246066
#	256413
#	268406
#
# Disc length: 3765 seconds
#
# Revision: 0
# Processed by: cddbd v1.5.2PL0 Copyright (c) Steve Scherf et al.
# Submitted via: EasyCDDAExtractor 10.2.0.1
#
DISCID=290eb313
DTITLE=Various Artist - Crossroads April 2006
DYEAR=2006
DGENRE=Gospel
TTITLE0=The McKameys - I Will Trust You Lord
TTITLE1=Dove Brothers - Just Imagine That
TTITLE2=Inspirations - I'm A Winner Either Way
TTITLE3=BlueRidge - Won't They Be Suprised
TTITLE4=The Churchmen - Thank You For Sending Your Son
TTITLE5=Village Singers - Who Put The Color In The Rose
TTITLE6=The Kingsmen - My Past Has Past
TTITLE7=Lauren Tally - More
TTITLE8=Poet Voices - Dear God
TTITLE9=Daryl Williams Trio - One Holy Morning
TTITLE10=Doyle Lawson - Help Me Lord
TTITLE11=Crist Family - Great Beyond
TTITLE12=Kingdom Heirs - God's Word
TTITLE13=Ivan Parker - The Grace That I'm Under
TTITLE14=Tim Surrett - Try A Little Kindness
TTITLE15=Reggie Sandler Family - This Is Not My Home
TTITLE16=Ronnie Cottingham - Signed, Sealed, And Delivered
TTITLE17=Randy Miller - That's A Fact
TTITLE18=Change Of Heart - New Jerusalem
EXTD=
EXTT0=
EXTT1=
EXTT2=
EXTT3=
EXTT4=
EXTT5=
EXTT6=
EXTT7=
EXTT8=
EXTT9=
EXTT10=
EXTT11=
EXTT12=
EXTT13=
EXTT14=
EXTT15=
EXTT16=
EXTT17=
EXTT18=
PLAYORDER=
